<svg width="432" height="54" viewBox="0 0 432 54" fill="none" xmlns="http://www.w3.org/2000/svg">
<path d="M23.5 3C15.2789 3 7.83333 9.66421 7.83333 17.8873C7.83333 26.1083 14.6268 35.9235 23.5 50C32.3732 35.9235 39.1667 26.1083 39.1667 17.8873C39.1667 9.66421 31.723 3 23.5 3ZM23.5 24.5417C20.255 24.5417 17.625 21.9116 17.625 18.6667C17.625 15.4217 20.255 12.7917 23.5 12.7917C26.745 12.7917 29.375 15.4217 29.375 18.6667C29.375 21.9116 26.745 24.5417 23.5 24.5417Z" fill="#F41922"/>
<path d="M71.48 43.704C68.9867 43.704 66.684 43.3227 64.572 42.56C62.4893 41.768 60.6707 40.6533 59.116 39.216C57.5907 37.7787 56.4027 36.0773 55.552 34.112C54.7013 32.1467 54.276 29.976 54.276 27.6C54.276 25.224 54.7013 23.0533 55.552 21.088C56.4027 19.1227 57.6053 17.4213 59.16 15.984C60.7147 14.5467 62.548 13.4467 64.66 12.684C66.8013 11.892 69.148 11.496 71.7 11.496C74.7507 11.496 77.464 12.0093 79.84 13.036C82.2453 14.0627 84.2253 15.5293 85.78 17.436L79.136 23.288C78.168 22.1733 77.112 21.3373 75.968 20.78C74.8533 20.1933 73.6067 19.9 72.228 19.9C71.084 19.9 70.0427 20.076 69.104 20.428C68.1947 20.78 67.4173 21.2933 66.772 21.968C66.1267 22.6427 65.628 23.4493 65.276 24.388C64.924 25.3267 64.748 26.3973 64.748 27.6C64.748 28.744 64.924 29.8 65.276 30.768C65.628 31.7067 66.1267 32.5133 66.772 33.188C67.4173 33.8627 68.18 34.3907 69.06 34.772C69.9693 35.124 70.9813 35.3 72.096 35.3C73.2693 35.3 74.4133 35.1093 75.528 34.728C76.6427 34.3173 77.8307 33.628 79.092 32.66L84.9 39.788C83.0227 41.0493 80.8813 42.0173 78.476 42.692C76.0707 43.3667 73.7387 43.704 71.48 43.704ZM75.88 38.468V26.764H84.9V39.788L75.88 38.468ZM89.3244 43V12.2H104.152C107.027 12.2 109.506 12.6693 111.588 13.608C113.7 14.5467 115.328 15.896 116.472 17.656C117.616 19.3867 118.188 21.44 118.188 23.816C118.188 26.192 117.616 28.2453 116.472 29.976C115.328 31.7067 113.7 33.056 111.588 34.024C109.506 34.9627 107.027 35.432 104.152 35.432H95.0884L99.7084 30.988V43H89.3244ZM99.7084 32.132L95.0884 27.424H103.492C104.93 27.424 105.986 27.1013 106.66 26.456C107.364 25.8107 107.716 24.9307 107.716 23.816C107.716 22.7013 107.364 21.8213 106.66 21.176C105.986 20.5307 104.93 20.208 103.492 20.208H95.0884L99.7084 15.5V32.132ZM133.508 43.704C130.926 43.704 128.433 43.4107 126.028 42.824C123.622 42.2373 121.642 41.4747 120.088 40.536L123.432 32.968C124.898 33.8187 126.526 34.508 128.316 35.036C130.134 35.5347 131.894 35.784 133.596 35.784C134.593 35.784 135.37 35.7253 135.928 35.608C136.514 35.4613 136.94 35.2707 137.204 35.036C137.468 34.772 137.6 34.464 137.6 34.112C137.6 33.5547 137.292 33.1147 136.676 32.792C136.06 32.4693 135.238 32.2053 134.212 32C133.214 31.7653 132.114 31.5307 130.912 31.296C129.709 31.032 128.492 30.6947 127.26 30.284C126.057 29.8733 124.942 29.3307 123.916 28.656C122.918 27.9813 122.112 27.1013 121.496 26.016C120.88 24.9013 120.572 23.5227 120.572 21.88C120.572 19.9733 121.1 18.2427 122.156 16.688C123.241 15.104 124.84 13.8427 126.952 12.904C129.093 11.9653 131.748 11.496 134.916 11.496C136.998 11.496 139.052 11.716 141.076 12.156C143.1 12.596 144.918 13.2707 146.532 14.18L143.408 21.704C141.882 20.9413 140.401 20.3693 138.964 19.988C137.556 19.6067 136.177 19.416 134.828 19.416C133.83 19.416 133.038 19.504 132.452 19.68C131.865 19.856 131.44 20.0907 131.176 20.384C130.941 20.6773 130.824 21 130.824 21.352C130.824 21.88 131.132 22.3053 131.748 22.628C132.364 22.9213 133.17 23.1707 134.168 23.376C135.194 23.5813 136.309 23.8013 137.512 24.036C138.744 24.2707 139.961 24.5933 141.164 25.004C142.366 25.4147 143.466 25.9573 144.464 26.632C145.49 27.3067 146.312 28.1867 146.928 29.272C147.544 30.3573 147.852 31.7067 147.852 33.32C147.852 35.1973 147.309 36.928 146.224 38.512C145.168 40.0667 143.584 41.328 141.472 42.296C139.36 43.2347 136.705 43.704 133.508 43.704ZM170.821 43V20.252H161.801V12.2H190.225V20.252H181.205V43H170.821ZM192.922 43V12.2H207.75C210.625 12.2 213.103 12.6693 215.186 13.608C217.298 14.5467 218.926 15.896 220.07 17.656C221.214 19.3867 221.786 21.44 221.786 23.816C221.786 26.192 221.214 28.2453 220.07 29.976C218.926 31.6773 217.298 32.9827 215.186 33.892C213.103 34.8013 210.625 35.256 207.75 35.256H198.686L203.306 30.988V43H192.922ZM211.358 43L203.79 31.78H214.79L222.446 43H211.358ZM203.306 32.132L198.686 27.424H207.09C208.527 27.424 209.583 27.1013 210.258 26.456C210.962 25.8107 211.314 24.9307 211.314 23.816C211.314 22.7013 210.962 21.8213 210.258 21.176C209.583 20.5307 208.527 20.208 207.09 20.208H198.686L203.306 15.5V32.132ZM222.363 43L235.827 12.2H246.035L259.499 43H248.763L238.819 17.128H242.867L232.923 43H222.363ZM230.371 37.632L233.011 30.152H247.179L249.819 37.632H230.371ZM261.156 43V12.2H269.692L285.356 30.944H281.396V12.2H291.516V43H282.98L267.316 24.256H271.276V43H261.156ZM308.004 43.704C305.422 43.704 302.929 43.4107 300.524 42.824C298.118 42.2373 296.138 41.4747 294.584 40.536L297.928 32.968C299.394 33.8187 301.022 34.508 302.812 35.036C304.63 35.5347 306.39 35.784 308.092 35.784C309.089 35.784 309.866 35.7253 310.424 35.608C311.01 35.4613 311.436 35.2707 311.7 35.036C311.964 34.772 312.096 34.464 312.096 34.112C312.096 33.5547 311.788 33.1147 311.172 32.792C310.556 32.4693 309.734 32.2053 308.708 32C307.71 31.7653 306.61 31.5307 305.408 31.296C304.205 31.032 302.988 30.6947 301.756 30.284C300.553 29.8733 299.438 29.3307 298.412 28.656C297.414 27.9813 296.608 27.1013 295.992 26.016C295.376 24.9013 295.068 23.5227 295.068 21.88C295.068 19.9733 295.596 18.2427 296.652 16.688C297.737 15.104 299.336 13.8427 301.448 12.904C303.589 11.9653 306.244 11.496 309.412 11.496C311.494 11.496 313.548 11.716 315.572 12.156C317.596 12.596 319.414 13.2707 321.028 14.18L317.904 21.704C316.378 20.9413 314.897 20.3693 313.46 19.988C312.052 19.6067 310.673 19.416 309.324 19.416C308.326 19.416 307.534 19.504 306.948 19.68C306.361 19.856 305.936 20.0907 305.672 20.384C305.437 20.6773 305.32 21 305.32 21.352C305.32 21.88 305.628 22.3053 306.244 22.628C306.86 22.9213 307.666 23.1707 308.664 23.376C309.69 23.5813 310.805 23.8013 312.008 24.036C313.24 24.2707 314.457 24.5933 315.66 25.004C316.862 25.4147 317.962 25.9573 318.96 26.632C319.986 27.3067 320.808 28.1867 321.424 29.272C322.04 30.3573 322.348 31.7067 322.348 33.32C322.348 35.1973 321.805 36.928 320.72 38.512C319.664 40.0667 318.08 41.328 315.968 42.296C313.856 43.2347 311.201 43.704 308.004 43.704ZM335.118 25.312H348.67V33.144H335.118V25.312ZM335.822 43H325.438V12.2H350.474V20.032H335.822V43ZM363.258 23.64H376.986V31.12H363.258V23.64ZM363.962 35.168H379.362V43H353.754V12.2H378.79V20.032H363.962V35.168ZM383.36 43V12.2H398.188C401.062 12.2 403.541 12.6693 405.624 13.608C407.736 14.5467 409.364 15.896 410.508 17.656C411.652 19.3867 412.224 21.44 412.224 23.816C412.224 26.192 411.652 28.2453 410.508 29.976C409.364 31.6773 407.736 32.9827 405.624 33.892C403.541 34.8013 401.062 35.256 398.188 35.256H389.124L393.744 30.988V43H383.36ZM401.796 43L394.228 31.78H405.228L412.884 43H401.796ZM393.744 32.132L389.124 27.424H397.528C398.965 27.424 400.021 27.1013 400.696 26.456C401.4 25.8107 401.752 24.9307 401.752 23.816C401.752 22.7013 401.4 21.8213 400.696 21.176C400.021 20.5307 398.965 20.208 397.528 20.208H389.124L393.744 15.5V32.132Z" fill="black"/>
</svg>
